<?xml version="1.0" standalone="no"?>
<!DOCTYPE svg PUBLIC "-//W3C//DTD SVG 20010904//EN"
 "http://www.w3.org/TR/2001/REC-SVG-20010904/DTD/svg10.dtd">
<svg version="1.0" xmlns="http://www.w3.org/2000/svg"
 width="300.000000pt" height="300.000000pt" viewBox="0 0 300.000000 300.000000"
 preserveAspectRatio="xMidYMid meet">
<metadata>
Created by potrace 1.11, written by Peter Selinger 2001-2013
</metadata>
<g transform="translate(0.000000,300.000000) scale(0.100000,-0.100000)"
fill="#000000" stroke="none">
<path d="M1290 2815 c-453 -76 -842 -380 -1015 -792 -256 -612 -35 -1306 529
-1657 418 -261 974 -261 1392 0 398 247 634 670 634 1134 0 658 -471 1208
-1125 1315 -108 18 -311 18 -415 0z m451 -95 c240 -49 438 -153 613 -320 257
-246 386 -546 386 -900 0 -333 -113 -617 -340 -854 -185 -194 -400 -313 -659
-366 -123 -25 -328 -27 -457 -5 -381 67 -723 322 -897 670 -89 179 -127 345
-127 555 0 261 65 477 208 695 60 91 197 233 293 305 143 106 341 192 515 224
122 22 346 20 465 -4z"/>
</g>
</svg>
